<svg width="64" height="64" viewBox="0 0 64 64" fill="none" xmlns="http://www.w3.org/2000/svg">
<rect width="64" height="64" rx="32" fill="white"/>
<g clip-path="url(#clip0_82_172)">
<mask id="mask0_82_172" style="mask-type:luminance" maskUnits="userSpaceOnUse" x="11" y="23" width="43" height="21">
<path d="M17.3399 23.9868L16.5117 27.8706H21.9663C21.8472 28.3465 21.7378 28.7511 21.6282 29.0749C21.5188 29.4033 21.4426 29.6222 21.395 29.7269C21.2761 30.0458 21.119 30.3696 20.9191 30.7026C20.7239 31.0358 20.4478 31.3499 20.0814 31.6402C19.6816 31.9496 19.2484 32.1686 18.7868 32.2924C18.325 32.4161 17.8444 32.4733 17.3399 32.4684C16.8496 32.4637 16.4069 32.4065 16.0166 32.2972C15.6263 32.1876 15.2884 32.0495 14.9981 31.8925C14.7077 31.7306 14.4698 31.5689 14.2794 31.4071C14.089 31.25 13.9509 31.1167 13.8557 31.012L11 34.4104C11.3141 34.6959 11.6377 34.9482 11.971 35.1671C12.3042 35.3861 12.6564 35.5812 13.0275 35.7525C13.7082 36.062 14.3746 36.2762 15.0313 36.3999C15.6882 36.5237 16.3594 36.5855 17.0543 36.5807C18.4298 36.5712 19.6245 36.4094 20.6335 36.0953C21.6473 35.7765 22.5183 35.348 23.2513 34.8102C23.9796 34.2771 24.6078 33.6774 25.1361 33.0111C25.5454 32.5065 25.8977 31.9925 26.1975 31.469C26.4973 30.9453 26.7639 30.4075 26.9876 29.8601C27.2114 29.3129 27.4159 28.756 27.5921 28.1848C27.624 28.079 27.6549 27.9742 27.685 27.8706H29.9797L26.5817 43.7107H31.6936L35.0916 27.8706H52.1669L53.0002 23.9868C44.8414 23.9868 25.4987 23.9868 17.3399 23.9868Z" fill="white"/>
</mask>
<g mask="url(#mask0_82_172)">
<path d="M17.3399 23.9868L16.5117 27.8706H21.9663C21.8472 28.3465 21.7378 28.7511 21.6282 29.0749C21.5188 29.4033 21.4426 29.6222 21.395 29.7269C21.2761 30.0458 21.119 30.3696 20.9191 30.7026C20.7239 31.0358 20.4478 31.3499 20.0814 31.6402C19.6816 31.9496 19.2484 32.1686 18.7868 32.2924C18.325 32.4161 17.8444 32.4733 17.3399 32.4684C16.8496 32.4637 16.4069 32.4065 16.0166 32.2972C15.6263 32.1876 15.2884 32.0495 14.9981 31.8925C14.7077 31.7306 14.4698 31.5689 14.2794 31.4071C14.089 31.25 13.9509 31.1167 13.8557 31.012L11 34.4104C11.3141 34.6959 11.6377 34.9482 11.971 35.1671C12.3042 35.3861 12.6564 35.5812 13.0275 35.7525C13.7082 36.062 14.3746 36.2762 15.0313 36.3999C15.6882 36.5237 16.3594 36.5855 17.0543 36.5807C18.4298 36.5712 19.6245 36.4094 20.6335 36.0953C21.6473 35.7765 22.5183 35.348 23.2513 34.8102C23.9796 34.2771 24.6078 33.6774 25.1361 33.0111C25.5454 32.5065 25.8977 31.9925 26.1975 31.469C26.4973 30.9453 26.7639 30.4075 26.9876 29.8601C27.2114 29.3129 27.4159 28.756 27.5921 28.1848C27.624 28.079 27.6549 27.9742 27.685 27.8706H29.9797L26.5817 43.7107H31.6936L35.0916 27.8706H52.1669L53.0002 23.9868C44.8414 23.9868 25.4987 23.9868 17.3399 23.9868Z" fill="url(#paint0_linear_82_172)"/>
</g>
<mask id="mask1_82_172" style="mask-type:luminance" maskUnits="userSpaceOnUse" x="33" y="29" width="19" height="20">
<path d="M51.8055 29.5561H37.7012L33.7426 48.0088H38.8528L41.8993 33.7826H45.7832L42.7367 48.0088H47.8469L51.8055 29.5561Z" fill="white"/>
</mask>
<g mask="url(#mask1_82_172)">
<path d="M51.8055 29.5561H37.7012L33.7426 48.0088H38.8528L41.8993 33.7826H45.7832L42.7367 48.0088H47.8469L51.8055 29.5561Z" fill="url(#paint1_linear_82_172)"/>
</g>
<mask id="mask2_82_172" style="mask-type:luminance" maskUnits="userSpaceOnUse" x="15" y="15" width="14" height="8">
<path d="M28.4665 22.3015C28.4413 21.7419 28.3736 21.2358 28.2631 20.7786C28.125 20.2077 27.949 19.7078 27.7301 19.2748C27.5111 18.8463 27.2732 18.475 27.0209 18.1611C26.5592 17.6041 26.0309 17.1662 25.4263 16.8475C24.8266 16.5333 24.1841 16.3095 23.4939 16.1762C22.8038 16.0477 22.0947 15.986 21.3665 15.9908C20.7287 15.9908 20.1242 16.038 19.553 16.1285C18.9818 16.2191 18.406 16.3476 17.8252 16.5046C17.316 16.6428 16.8496 16.7997 16.4212 16.9663C15.9881 17.1378 15.5644 17.3328 15.1407 17.5614L16.5402 21.1311C16.8067 20.9643 17.1303 20.7979 17.5016 20.6313C17.8729 20.4695 18.2917 20.3314 18.7486 20.2171C19.2056 20.1078 19.7005 20.0505 20.2242 20.0459C20.8334 20.0459 21.3284 20.1409 21.7044 20.3314C22.0852 20.517 22.3708 20.7834 22.5659 21.1311C22.7181 21.4214 22.8133 21.7117 22.8562 21.9924C22.873 22.1021 22.8853 22.2051 22.8939 22.3015H28.4665Z" fill="white"/>
</mask>
<g mask="url(#mask2_82_172)">
<path d="M28.4665 22.3015C28.4413 21.7419 28.3736 21.2358 28.2631 20.7786C28.125 20.2077 27.949 19.7078 27.7301 19.2748C27.5111 18.8463 27.2732 18.475 27.0209 18.1611C26.5592 17.6041 26.0309 17.1662 25.4263 16.8475C24.8266 16.5333 24.1841 16.3095 23.4939 16.1762C22.8038 16.0477 22.0947 15.986 21.3665 15.9908C20.7287 15.9908 20.1242 16.038 19.553 16.1285C18.9818 16.2191 18.406 16.3476 17.8252 16.5046C17.316 16.6428 16.8496 16.7997 16.4212 16.9663C15.9881 17.1378 15.5644 17.3328 15.1407 17.5614L16.5402 21.1311C16.8067 20.9643 17.1303 20.7979 17.5016 20.6313C17.8729 20.4695 18.2917 20.3314 18.7486 20.2171C19.2056 20.1078 19.7005 20.0505 20.2242 20.0459C20.8334 20.0459 21.3284 20.1409 21.7044 20.3314C22.0852 20.517 22.3708 20.7834 22.5659 21.1311C22.7181 21.4214 22.8133 21.7117 22.8562 21.9924C22.873 22.1021 22.8853 22.2051 22.8939 22.3015H28.4665Z" fill="url(#paint2_linear_82_172)"/>
</g>
</g>
<defs>
<linearGradient id="paint0_linear_82_172" x1="25.9413" y1="23.9868" x2="25.9413" y2="43.7107" gradientUnits="userSpaceOnUse">
<stop stop-color="#66CEF5"/>
<stop offset="1" stop-color="#127BCA"/>
</linearGradient>
<linearGradient id="paint1_linear_82_172" x1="42.8958" y1="48.009" x2="42.8958" y2="29.5561" gradientUnits="userSpaceOnUse">
<stop stop-color="#E02526"/>
<stop offset="1" stop-color="#F04338"/>
</linearGradient>
<linearGradient id="paint2_linear_82_172" x1="21.8036" y1="22.3015" x2="21.8036" y2="15.9896" gradientUnits="userSpaceOnUse">
<stop stop-color="#BDD3DC"/>
<stop offset="1" stop-color="#DCECF2"/>
</linearGradient>
<clipPath id="clip0_82_172">
<rect width="42" height="42" fill="white" transform="translate(11 11)"/>
</clipPath>
</defs>
</svg>
