<svg width="64" height="64" viewBox="0 0 64 64" fill="none" xmlns="http://www.w3.org/2000/svg">
<g clip-path="url(#clip0_1309_17)">
<path d="M32 64C49.6731 64 64 49.6731 64 32C64 14.3269 49.6731 0 32 0C14.3269 0 0 14.3269 0 32C0 49.6731 14.3269 64 32 64Z" fill="white"/>
<mask id="path-2-outside-1_1309_17" maskUnits="userSpaceOnUse" x="13.5534" y="49.2385" width="37" height="10" fill="black">
<rect fill="white" x="13.5534" y="49.2385" width="37" height="10"/>
<path d="M15.5642 56.1582C14.8901 55.4842 14.5534 54.6661 14.5534 53.7038C14.5534 52.7415 14.8901 51.9234 15.5642 51.2494C16.2382 50.5755 17.0564 50.2385 18.0186 50.2385C18.3601 50.2385 18.6879 50.2871 19.0012 50.3843C19.3148 50.4783 19.5735 50.5927 19.7771 50.7275C19.9841 50.8623 20.1643 50.9987 20.3177 51.1366C20.4745 51.2745 20.5873 51.3921 20.6564 51.4892L20.7644 51.635L20.2802 52.0676C20.2613 52.0362 20.2331 51.9954 20.1956 51.9453C20.1581 51.892 20.0701 51.7996 19.9321 51.6679C19.7942 51.5362 19.644 51.4203 19.4809 51.3199C19.321 51.2165 19.1095 51.1225 18.8461 51.0378C18.5827 50.9532 18.3068 50.9109 18.0186 50.9109C17.2476 50.9109 16.5969 51.1789 16.0673 51.7149C15.5377 52.2509 15.2725 52.9139 15.2725 53.7038C15.2725 54.4937 15.5377 55.1567 16.0673 55.6927C16.5969 56.2287 17.2476 56.4966 18.0186 56.4966C18.3068 56.4966 18.5827 56.4574 18.8461 56.3793C19.1095 56.2978 19.3272 56.2005 19.4995 56.0877C19.6753 55.9749 19.8286 55.8634 19.9604 55.7537C20.0921 55.641 20.1863 55.5422 20.2427 55.4576L20.3318 55.3401L20.8115 55.7775C20.7864 55.815 20.7472 55.8652 20.6939 55.9278C20.6437 55.9873 20.5295 56.097 20.3507 56.2569C20.1753 56.4168 19.9885 56.5595 19.7911 56.6847C19.5937 56.8102 19.3334 56.923 19.0108 57.0234C18.691 57.1204 18.3601 57.1689 18.0186 57.1689C17.0564 57.1689 16.2382 56.8322 15.5642 56.1582ZM21.1922 53.0784V52.4531H25.1372V53.0784H23.5009V57.075H22.8285V53.0784H21.1922ZM27.2811 53.5204C26.9458 53.8746 26.7783 54.29 26.7783 54.7664C26.7783 55.2397 26.9458 55.6551 27.2811 56.0124C27.6199 56.3666 27.9975 56.5437 28.4143 56.5437C28.8125 56.5437 29.1681 56.3714 29.4818 56.0265C29.7982 55.6786 29.9567 55.2585 29.9567 54.7664C29.9567 54.2712 29.7982 53.8511 29.4818 53.5063C29.1681 53.1584 28.8125 52.9844 28.4143 52.9844C27.9975 52.9844 27.6199 53.1631 27.2811 53.5204ZM26.7783 56.3511V59.0969H26.1056V52.4531H26.7783V53.1772C26.7907 53.1584 26.8127 53.1302 26.844 53.0925C26.8784 53.0518 26.9458 52.9844 27.0462 52.8904C27.1497 52.7963 27.2608 52.7133 27.3802 52.6412C27.4992 52.566 27.6512 52.5001 27.8362 52.4437C28.0243 52.3841 28.2169 52.3543 28.4143 52.3543C29.0038 52.3543 29.5193 52.591 29.9612 53.0643C30.4066 53.5377 30.6291 54.105 30.6291 54.7664C30.6291 55.4247 30.4079 55.9903 29.966 56.4639C29.5241 56.934 29.0068 57.1689 28.4143 57.1689C28.2169 57.1689 28.0257 57.1407 27.8407 57.0843C27.6591 57.0279 27.5053 56.9605 27.3802 56.8821C27.2546 56.804 27.1449 56.7256 27.0507 56.6472C26.9599 56.5657 26.8911 56.4966 26.844 56.4402L26.7783 56.3511ZM32.8435 54.4279L34.6256 54.1364C34.6256 53.7947 34.5173 53.5173 34.3013 53.3042C34.085 53.091 33.8075 52.9844 33.4691 52.9844C33.2245 52.9844 32.9941 53.0408 32.7778 53.1537C32.5646 53.2634 32.4095 53.3762 32.3121 53.4922L32.1663 53.6568L31.734 53.2242C31.7526 53.1991 31.7777 53.1678 31.809 53.1302C31.8437 53.0894 31.9156 53.0205 32.0253 52.9233C32.1381 52.823 32.2557 52.7336 32.3782 52.6553C32.5003 52.5769 32.6602 52.508 32.8576 52.4484C33.0584 52.3857 33.262 52.3543 33.4691 52.3543C33.9956 52.3543 34.4313 52.5252 34.7759 52.8669C35.1239 53.2085 35.298 53.6317 35.298 54.1364V57.075H34.6256V56.4498C34.6129 56.4684 34.5926 56.4952 34.5644 56.5296C34.5393 56.5609 34.4798 56.619 34.3859 56.7036C34.2948 56.7851 34.1961 56.8587 34.0895 56.9244C33.9829 56.9873 33.8418 57.0437 33.6665 57.0939C33.4942 57.1442 33.3153 57.1689 33.1303 57.1689C32.6695 57.1689 32.2808 57.0327 31.9645 56.76C31.6508 56.4873 31.494 56.1754 31.494 55.8242C31.494 55.4388 31.6102 55.1284 31.842 54.8934C32.0742 54.6551 32.4078 54.5 32.8435 54.4279ZM33.1303 56.5437C33.566 56.5437 33.9234 56.401 34.2023 56.1159C34.4846 55.8308 34.6256 55.4607 34.6256 55.0062V54.7147L33.0364 55.0062C32.4597 55.1159 32.1698 55.3886 32.1663 55.8242C32.1663 56.0313 32.2513 56.2036 32.4205 56.3415C32.5928 56.4763 32.8294 56.5437 33.1303 56.5437ZM36.2571 53.0784V52.4531H40.2021V53.0784H38.5658V57.075H37.8934V53.0784H36.2571ZM45.2613 55.0156L41.5045 55.0062C41.5296 55.4231 41.7001 55.7837 42.0169 56.0877C42.3367 56.3917 42.7112 56.5437 43.1408 56.5437C43.429 56.5437 43.6969 56.4794 43.9448 56.3511C44.1924 56.2225 44.3678 56.0939 44.4714 55.9652L44.6357 55.7775L45.0684 56.2098C45.0495 56.2349 45.0213 56.271 44.9838 56.3181C44.9494 56.3618 44.871 56.4388 44.7485 56.5485C44.6295 56.6551 44.4996 56.7507 44.3585 56.8353C44.2206 56.9168 44.0404 56.9935 43.8176 57.0657C43.5982 57.1345 43.3726 57.1689 43.1408 57.1689C42.5107 57.1689 41.9684 56.9354 41.5137 56.4684C41.0594 55.9983 40.8321 55.4294 40.8321 54.7617C40.8321 54.094 41.056 53.5267 41.5045 53.0596C41.9557 52.5894 42.4856 52.3543 43.0937 52.3543C43.7237 52.3543 44.2502 52.5738 44.6736 53.0126C45.0966 53.4483 45.3081 54 45.3081 54.6677L45.2613 55.0156ZM44.1281 53.3935C43.8427 53.1208 43.4981 52.9844 43.0937 52.9844C42.6892 52.9844 42.3367 53.127 42.0358 53.4123C41.7349 53.6975 41.5578 54.0361 41.5045 54.4279H44.6357C44.5855 54.011 44.4163 53.6662 44.1281 53.3935ZM49.5915 52.4531V53.0784H47.1841V57.075H46.5118V52.4531H49.5915Z"/>
</mask>
<path d="M15.5642 56.1582C14.8901 55.4842 14.5534 54.6661 14.5534 53.7038C14.5534 52.7415 14.8901 51.9234 15.5642 51.2494C16.2382 50.5755 17.0564 50.2385 18.0186 50.2385C18.3601 50.2385 18.6879 50.2871 19.0012 50.3843C19.3148 50.4783 19.5735 50.5927 19.7771 50.7275C19.9841 50.8623 20.1643 50.9987 20.3177 51.1366C20.4745 51.2745 20.5873 51.3921 20.6564 51.4892L20.7644 51.635L20.2802 52.0676C20.2613 52.0362 20.2331 51.9954 20.1956 51.9453C20.1581 51.892 20.0701 51.7996 19.9321 51.6679C19.7942 51.5362 19.644 51.4203 19.4809 51.3199C19.321 51.2165 19.1095 51.1225 18.8461 51.0378C18.5827 50.9532 18.3068 50.9109 18.0186 50.9109C17.2476 50.9109 16.5969 51.1789 16.0673 51.7149C15.5377 52.2509 15.2725 52.9139 15.2725 53.7038C15.2725 54.4937 15.5377 55.1567 16.0673 55.6927C16.5969 56.2287 17.2476 56.4966 18.0186 56.4966C18.3068 56.4966 18.5827 56.4574 18.8461 56.3793C19.1095 56.2978 19.3272 56.2005 19.4995 56.0877C19.6753 55.9749 19.8286 55.8634 19.9604 55.7537C20.0921 55.641 20.1863 55.5422 20.2427 55.4576L20.3318 55.3401L20.8115 55.7775C20.7864 55.815 20.7472 55.8652 20.6939 55.9278C20.6437 55.9873 20.5295 56.097 20.3507 56.2569C20.1753 56.4168 19.9885 56.5595 19.7911 56.6847C19.5937 56.8102 19.3334 56.923 19.0108 57.0234C18.691 57.1204 18.3601 57.1689 18.0186 57.1689C17.0564 57.1689 16.2382 56.8322 15.5642 56.1582ZM21.1922 53.0784V52.4531H25.1372V53.0784H23.5009V57.075H22.8285V53.0784H21.1922ZM27.2811 53.5204C26.9458 53.8746 26.7783 54.29 26.7783 54.7664C26.7783 55.2397 26.9458 55.6551 27.2811 56.0124C27.6199 56.3666 27.9975 56.5437 28.4143 56.5437C28.8125 56.5437 29.1681 56.3714 29.4818 56.0265C29.7982 55.6786 29.9567 55.2585 29.9567 54.7664C29.9567 54.2712 29.7982 53.8511 29.4818 53.5063C29.1681 53.1584 28.8125 52.9844 28.4143 52.9844C27.9975 52.9844 27.6199 53.1631 27.2811 53.5204ZM26.7783 56.3511V59.0969H26.1056V52.4531H26.7783V53.1772C26.7907 53.1584 26.8127 53.1302 26.844 53.0925C26.8784 53.0518 26.9458 52.9844 27.0462 52.8904C27.1497 52.7963 27.2608 52.7133 27.3802 52.6412C27.4992 52.566 27.6512 52.5001 27.8362 52.4437C28.0243 52.3841 28.2169 52.3543 28.4143 52.3543C29.0038 52.3543 29.5193 52.591 29.9612 53.0643C30.4066 53.5377 30.6291 54.105 30.6291 54.7664C30.6291 55.4247 30.4079 55.9903 29.966 56.4639C29.5241 56.934 29.0068 57.1689 28.4143 57.1689C28.2169 57.1689 28.0257 57.1407 27.8407 57.0843C27.6591 57.0279 27.5053 56.9605 27.3802 56.8821C27.2546 56.804 27.1449 56.7256 27.0507 56.6472C26.9599 56.5657 26.8911 56.4966 26.844 56.4402L26.7783 56.3511ZM32.8435 54.4279L34.6256 54.1364C34.6256 53.7947 34.5173 53.5173 34.3013 53.3042C34.085 53.091 33.8075 52.9844 33.4691 52.9844C33.2245 52.9844 32.9941 53.0408 32.7778 53.1537C32.5646 53.2634 32.4095 53.3762 32.3121 53.4922L32.1663 53.6568L31.734 53.2242C31.7526 53.1991 31.7777 53.1678 31.809 53.1302C31.8437 53.0894 31.9156 53.0205 32.0253 52.9233C32.1381 52.823 32.2557 52.7336 32.3782 52.6553C32.5003 52.5769 32.6602 52.508 32.8576 52.4484C33.0584 52.3857 33.262 52.3543 33.4691 52.3543C33.9956 52.3543 34.4313 52.5252 34.7759 52.8669C35.1239 53.2085 35.298 53.6317 35.298 54.1364V57.075H34.6256V56.4498C34.6129 56.4684 34.5926 56.4952 34.5644 56.5296C34.5393 56.5609 34.4798 56.619 34.3859 56.7036C34.2948 56.7851 34.1961 56.8587 34.0895 56.9244C33.9829 56.9873 33.8418 57.0437 33.6665 57.0939C33.4942 57.1442 33.3153 57.1689 33.1303 57.1689C32.6695 57.1689 32.2808 57.0327 31.9645 56.76C31.6508 56.4873 31.494 56.1754 31.494 55.8242C31.494 55.4388 31.6102 55.1284 31.842 54.8934C32.0742 54.6551 32.4078 54.5 32.8435 54.4279ZM33.1303 56.5437C33.566 56.5437 33.9234 56.401 34.2023 56.1159C34.4846 55.8308 34.6256 55.4607 34.6256 55.0062V54.7147L33.0364 55.0062C32.4597 55.1159 32.1698 55.3886 32.1663 55.8242C32.1663 56.0313 32.2513 56.2036 32.4205 56.3415C32.5928 56.4763 32.8294 56.5437 33.1303 56.5437ZM36.2571 53.0784V52.4531H40.2021V53.0784H38.5658V57.075H37.8934V53.0784H36.2571ZM45.2613 55.0156L41.5045 55.0062C41.5296 55.4231 41.7001 55.7837 42.0169 56.0877C42.3367 56.3917 42.7112 56.5437 43.1408 56.5437C43.429 56.5437 43.6969 56.4794 43.9448 56.3511C44.1924 56.2225 44.3678 56.0939 44.4714 55.9652L44.6357 55.7775L45.0684 56.2098C45.0495 56.2349 45.0213 56.271 44.9838 56.3181C44.9494 56.3618 44.871 56.4388 44.7485 56.5485C44.6295 56.6551 44.4996 56.7507 44.3585 56.8353C44.2206 56.9168 44.0404 56.9935 43.8176 57.0657C43.5982 57.1345 43.3726 57.1689 43.1408 57.1689C42.5107 57.1689 41.9684 56.9354 41.5137 56.4684C41.0594 55.9983 40.8321 55.4294 40.8321 54.7617C40.8321 54.094 41.056 53.5267 41.5045 53.0596C41.9557 52.5894 42.4856 52.3543 43.0937 52.3543C43.7237 52.3543 44.2502 52.5738 44.6736 53.0126C45.0966 53.4483 45.3081 54 45.3081 54.6677L45.2613 55.0156ZM44.1281 53.3935C43.8427 53.1208 43.4981 52.9844 43.0937 52.9844C42.6892 52.9844 42.3367 53.127 42.0358 53.4123C41.7349 53.6975 41.5578 54.0361 41.5045 54.4279H44.6357C44.5855 54.011 44.4163 53.6662 44.1281 53.3935ZM49.5915 52.4531V53.0784H47.1841V57.075H46.5118V52.4531H49.5915Z" fill="#0353D0"/>
<path d="M15.5642 56.1582C14.8901 55.4842 14.5534 54.6661 14.5534 53.7038C14.5534 52.7415 14.8901 51.9234 15.5642 51.2494C16.2382 50.5755 17.0564 50.2385 18.0186 50.2385C18.3601 50.2385 18.6879 50.2871 19.0012 50.3843C19.3148 50.4783 19.5735 50.5927 19.7771 50.7275C19.9841 50.8623 20.1643 50.9987 20.3177 51.1366C20.4745 51.2745 20.5873 51.3921 20.6564 51.4892L20.7644 51.635L20.2802 52.0676C20.2613 52.0362 20.2331 51.9954 20.1956 51.9453C20.1581 51.892 20.0701 51.7996 19.9321 51.6679C19.7942 51.5362 19.644 51.4203 19.4809 51.3199C19.321 51.2165 19.1095 51.1225 18.8461 51.0378C18.5827 50.9532 18.3068 50.9109 18.0186 50.9109C17.2476 50.9109 16.5969 51.1789 16.0673 51.7149C15.5377 52.2509 15.2725 52.9139 15.2725 53.7038C15.2725 54.4937 15.5377 55.1567 16.0673 55.6927C16.5969 56.2287 17.2476 56.4966 18.0186 56.4966C18.3068 56.4966 18.5827 56.4574 18.8461 56.3793C19.1095 56.2978 19.3272 56.2005 19.4995 56.0877C19.6753 55.9749 19.8286 55.8634 19.9604 55.7537C20.0921 55.641 20.1863 55.5422 20.2427 55.4576L20.3318 55.3401L20.8115 55.7775C20.7864 55.815 20.7472 55.8652 20.6939 55.9278C20.6437 55.9873 20.5295 56.097 20.3507 56.2569C20.1753 56.4168 19.9885 56.5595 19.7911 56.6847C19.5937 56.8102 19.3334 56.923 19.0108 57.0234C18.691 57.1204 18.3601 57.1689 18.0186 57.1689C17.0564 57.1689 16.2382 56.8322 15.5642 56.1582ZM21.1922 53.0784V52.4531H25.1372V53.0784H23.5009V57.075H22.8285V53.0784H21.1922ZM27.2811 53.5204C26.9458 53.8746 26.7783 54.29 26.7783 54.7664C26.7783 55.2397 26.9458 55.6551 27.2811 56.0124C27.6199 56.3666 27.9975 56.5437 28.4143 56.5437C28.8125 56.5437 29.1681 56.3714 29.4818 56.0265C29.7982 55.6786 29.9567 55.2585 29.9567 54.7664C29.9567 54.2712 29.7982 53.8511 29.4818 53.5063C29.1681 53.1584 28.8125 52.9844 28.4143 52.9844C27.9975 52.9844 27.6199 53.1631 27.2811 53.5204ZM26.7783 56.3511V59.0969H26.1056V52.4531H26.7783V53.1772C26.7907 53.1584 26.8127 53.1302 26.844 53.0925C26.8784 53.0518 26.9458 52.9844 27.0462 52.8904C27.1497 52.7963 27.2608 52.7133 27.3802 52.6412C27.4992 52.566 27.6512 52.5001 27.8362 52.4437C28.0243 52.3841 28.2169 52.3543 28.4143 52.3543C29.0038 52.3543 29.5193 52.591 29.9612 53.0643C30.4066 53.5377 30.6291 54.105 30.6291 54.7664C30.6291 55.4247 30.4079 55.9903 29.966 56.4639C29.5241 56.934 29.0068 57.1689 28.4143 57.1689C28.2169 57.1689 28.0257 57.1407 27.8407 57.0843C27.6591 57.0279 27.5053 56.9605 27.3802 56.8821C27.2546 56.804 27.1449 56.7256 27.0507 56.6472C26.9599 56.5657 26.8911 56.4966 26.844 56.4402L26.7783 56.3511ZM32.8435 54.4279L34.6256 54.1364C34.6256 53.7947 34.5173 53.5173 34.3013 53.3042C34.085 53.091 33.8075 52.9844 33.4691 52.9844C33.2245 52.9844 32.9941 53.0408 32.7778 53.1537C32.5646 53.2634 32.4095 53.3762 32.3121 53.4922L32.1663 53.6568L31.734 53.2242C31.7526 53.1991 31.7777 53.1678 31.809 53.1302C31.8437 53.0894 31.9156 53.0205 32.0253 52.9233C32.1381 52.823 32.2557 52.7336 32.3782 52.6553C32.5003 52.5769 32.6602 52.508 32.8576 52.4484C33.0584 52.3857 33.262 52.3543 33.4691 52.3543C33.9956 52.3543 34.4313 52.5252 34.7759 52.8669C35.1239 53.2085 35.298 53.6317 35.298 54.1364V57.075H34.6256V56.4498C34.6129 56.4684 34.5926 56.4952 34.5644 56.5296C34.5393 56.5609 34.4798 56.619 34.3859 56.7036C34.2948 56.7851 34.1961 56.8587 34.0895 56.9244C33.9829 56.9873 33.8418 57.0437 33.6665 57.0939C33.4942 57.1442 33.3153 57.1689 33.1303 57.1689C32.6695 57.1689 32.2808 57.0327 31.9645 56.76C31.6508 56.4873 31.494 56.1754 31.494 55.8242C31.494 55.4388 31.6102 55.1284 31.842 54.8934C32.0742 54.6551 32.4078 54.5 32.8435 54.4279ZM33.1303 56.5437C33.566 56.5437 33.9234 56.401 34.2023 56.1159C34.4846 55.8308 34.6256 55.4607 34.6256 55.0062V54.7147L33.0364 55.0062C32.4597 55.1159 32.1698 55.3886 32.1663 55.8242C32.1663 56.0313 32.2513 56.2036 32.4205 56.3415C32.5928 56.4763 32.8294 56.5437 33.1303 56.5437ZM36.2571 53.0784V52.4531H40.2021V53.0784H38.5658V57.075H37.8934V53.0784H36.2571ZM45.2613 55.0156L41.5045 55.0062C41.5296 55.4231 41.7001 55.7837 42.0169 56.0877C42.3367 56.3917 42.7112 56.5437 43.1408 56.5437C43.429 56.5437 43.6969 56.4794 43.9448 56.3511C44.1924 56.2225 44.3678 56.0939 44.4714 55.9652L44.6357 55.7775L45.0684 56.2098C45.0495 56.2349 45.0213 56.271 44.9838 56.3181C44.9494 56.3618 44.871 56.4388 44.7485 56.5485C44.6295 56.6551 44.4996 56.7507 44.3585 56.8353C44.2206 56.9168 44.0404 56.9935 43.8176 57.0657C43.5982 57.1345 43.3726 57.1689 43.1408 57.1689C42.5107 57.1689 41.9684 56.9354 41.5137 56.4684C41.0594 55.9983 40.8321 55.4294 40.8321 54.7617C40.8321 54.094 41.056 53.5267 41.5045 53.0596C41.9557 52.5894 42.4856 52.3543 43.0937 52.3543C43.7237 52.3543 44.2502 52.5738 44.6736 53.0126C45.0966 53.4483 45.3081 54 45.3081 54.6677L45.2613 55.0156ZM44.1281 53.3935C43.8427 53.1208 43.4981 52.9844 43.0937 52.9844C42.6892 52.9844 42.3367 53.127 42.0358 53.4123C41.7349 53.6975 41.5578 54.0361 41.5045 54.4279H44.6357C44.5855 54.011 44.4163 53.6662 44.1281 53.3935ZM49.5915 52.4531V53.0784H47.1841V57.075H46.5118V52.4531H49.5915Z" stroke="#0353D0" stroke-width="0.217143" mask="url(#path-2-outside-1_1309_17)"/>
<mask id="path-3-outside-2_1309_17" maskUnits="userSpaceOnUse" x="13.2618" y="39.8027" width="37" height="10" fill="black">
<rect fill="white" x="13.2618" y="39.8027" width="37" height="10"/>
<path d="M17.7318 44.0752C17.7693 44.0815 17.8178 44.0972 17.8776 44.1222C17.9402 44.1442 18.0516 44.199 18.2112 44.2868C18.3711 44.3714 18.5139 44.4717 18.639 44.5877C18.7646 44.7037 18.8774 44.8667 18.9778 45.0767C19.0782 45.2836 19.1281 45.5124 19.1281 45.7632C19.1281 46.2898 18.8977 46.7506 18.4372 47.1456C17.9794 47.5374 17.39 47.7333 16.6691 47.7333C16.3744 47.7333 16.0893 47.6972 15.8135 47.6251C15.5377 47.5499 15.3086 47.4621 15.127 47.3618C14.9482 47.2584 14.79 47.155 14.6521 47.0515C14.5142 46.9481 14.4169 46.8619 14.3605 46.7929L14.2618 46.6754L14.746 46.1958C14.7649 46.2209 14.7914 46.2538 14.8261 46.2945C14.8636 46.3321 14.942 46.4011 15.061 46.5014C15.1834 46.5986 15.3134 46.6863 15.4514 46.7647C15.5893 46.8399 15.7695 46.9089 15.992 46.9716C16.2145 47.0311 16.4404 47.0609 16.6691 47.0609C17.2018 47.0609 17.6235 46.9324 17.934 46.6754C18.2473 46.4183 18.4041 46.1143 18.4041 45.7632C18.4041 45.3839 18.2473 45.0642 17.934 44.804C17.6235 44.5438 17.2018 44.4138 16.6691 44.4138H15.9026V43.7414H16.6691C17.13 43.7414 17.4935 43.6333 17.76 43.417C18.0296 43.2007 18.1644 42.939 18.1644 42.6318C18.1644 42.3057 18.031 42.0315 17.7648 41.8089C17.4983 41.5864 17.1331 41.4751 16.6691 41.4751C16.3558 41.4751 16.0594 41.5393 15.7805 41.6679C15.5016 41.7964 15.2976 41.9249 15.1693 42.0534L14.9857 42.2462L14.5063 41.7666C14.5252 41.7415 14.5548 41.7071 14.5957 41.6632C14.6363 41.6161 14.7257 41.5378 14.8636 41.4281C15.0015 41.3184 15.1473 41.2227 15.3007 41.1413C15.4575 41.0566 15.6584 40.9798 15.9026 40.9109C16.1505 40.8388 16.4057 40.8027 16.6691 40.8027C17.3432 40.8027 17.8807 40.9751 18.2817 41.3199C18.6831 41.6616 18.8836 42.0832 18.8836 42.5847C18.8836 42.8042 18.843 43.0032 18.7615 43.1819C18.6831 43.3605 18.5875 43.5032 18.4747 43.6097C18.3649 43.7163 18.2535 43.8072 18.1407 43.8825C18.0279 43.9545 17.9292 44.0063 17.8446 44.0376L17.7318 44.0752ZM21.4367 44.9921L23.2189 44.7006C23.2189 44.3589 23.1105 44.0815 22.8946 43.8684C22.6782 43.6552 22.4007 43.5486 22.0623 43.5486C21.8178 43.5486 21.5874 43.605 21.371 43.7179C21.1578 43.8276 21.0027 43.9404 20.9054 44.0564L20.7599 44.221L20.3273 43.7884C20.3459 43.7633 20.371 43.732 20.4022 43.6944C20.437 43.6536 20.5089 43.5847 20.6186 43.4875C20.7314 43.3872 20.849 43.2979 20.9714 43.2195C21.0935 43.1411 21.2534 43.0722 21.4508 43.0126C21.6517 42.9499 21.8553 42.9186 22.0623 42.9186C22.5888 42.9186 23.0246 43.0894 23.3691 43.4311C23.7172 43.7728 23.8912 44.1959 23.8912 44.7006V47.6392H23.2189V47.0139C23.2061 47.0327 23.1858 47.0593 23.1576 47.0938C23.1325 47.1252 23.073 47.1832 22.9792 47.2678C22.888 47.3493 22.7893 47.423 22.6827 47.4888C22.5761 47.5515 22.4351 47.6079 22.2597 47.6581C22.0874 47.7082 21.9086 47.7333 21.7235 47.7333C21.2627 47.7333 20.8741 47.5969 20.5577 47.3242C20.244 47.0515 20.0872 46.7396 20.0872 46.3886C20.0872 46.003 20.2035 45.6927 20.4353 45.4576C20.6674 45.2193 21.001 45.0642 21.4367 44.9921ZM21.7235 47.1079C22.1593 47.1079 22.5166 46.9653 22.7955 46.68C23.0779 46.3948 23.2189 46.0249 23.2189 45.5704V45.2789L21.6297 45.5704C21.0529 45.6801 20.763 45.9529 20.7599 46.3886C20.7599 46.5954 20.8445 46.7678 21.0137 46.9058C21.186 47.0405 21.4226 47.1079 21.7235 47.1079ZM26.1012 46.3415V47.6392H25.4288V43.0173H26.1012V45.4717L28.4098 43.0173H29.2324L27.4506 44.8933L29.4254 47.6392H28.6543L27.018 45.3776L26.1012 46.3415ZM31.3014 48.3116L31.5411 47.6392L29.6603 43.0173H30.3845L31.8795 46.7741L33.37 43.0173H34.0943L31.9737 48.3116C31.7825 48.8006 31.5772 49.147 31.3578 49.3507C31.1384 49.5576 30.8626 49.661 30.5303 49.661C30.4268 49.661 30.3264 49.6532 30.2294 49.6375C30.1352 49.6219 30.0647 49.6046 30.0176 49.5858L29.9519 49.567V48.9369C30.1118 48.9996 30.2717 49.0326 30.4316 49.0357C30.8388 49.0357 31.1291 48.7943 31.3014 48.3116ZM38.3305 47.6392V43.652H35.6834V47.6392H35.0111V43.0173H39.0077V47.6392H38.3305ZM41.2224 46.3415V47.6392H40.5498V43.0173H41.2224V45.4717L43.5307 43.0173H44.3537L42.5716 44.8933L44.5466 47.6392H43.7753L42.1393 45.3776L41.2224 46.3415ZM48.8768 43.0173H49.4552V47.6392H48.7781V44.174L45.9852 47.6392H45.4116V43.0173H46.0839V46.4826L48.8768 43.0173Z"/>
</mask>
<path d="M17.7318 44.0752C17.7693 44.0815 17.8178 44.0972 17.8776 44.1222C17.9402 44.1442 18.0516 44.199 18.2112 44.2868C18.3711 44.3714 18.5139 44.4717 18.639 44.5877C18.7646 44.7037 18.8774 44.8667 18.9778 45.0767C19.0782 45.2836 19.1281 45.5124 19.1281 45.7632C19.1281 46.2898 18.8977 46.7506 18.4372 47.1456C17.9794 47.5374 17.39 47.7333 16.6691 47.7333C16.3744 47.7333 16.0893 47.6972 15.8135 47.6251C15.5377 47.5499 15.3086 47.4621 15.127 47.3618C14.9482 47.2584 14.79 47.155 14.6521 47.0515C14.5142 46.9481 14.4169 46.8619 14.3605 46.7929L14.2618 46.6754L14.746 46.1958C14.7649 46.2209 14.7914 46.2538 14.8261 46.2945C14.8636 46.3321 14.942 46.4011 15.061 46.5014C15.1834 46.5986 15.3134 46.6863 15.4514 46.7647C15.5893 46.8399 15.7695 46.9089 15.992 46.9716C16.2145 47.0311 16.4404 47.0609 16.6691 47.0609C17.2018 47.0609 17.6235 46.9324 17.934 46.6754C18.2473 46.4183 18.4041 46.1143 18.4041 45.7632C18.4041 45.3839 18.2473 45.0642 17.934 44.804C17.6235 44.5438 17.2018 44.4138 16.6691 44.4138H15.9026V43.7414H16.6691C17.13 43.7414 17.4935 43.6333 17.76 43.417C18.0296 43.2007 18.1644 42.939 18.1644 42.6318C18.1644 42.3057 18.031 42.0315 17.7648 41.8089C17.4983 41.5864 17.1331 41.4751 16.6691 41.4751C16.3558 41.4751 16.0594 41.5393 15.7805 41.6679C15.5016 41.7964 15.2976 41.9249 15.1693 42.0534L14.9857 42.2462L14.5063 41.7666C14.5252 41.7415 14.5548 41.7071 14.5957 41.6632C14.6363 41.6161 14.7257 41.5378 14.8636 41.4281C15.0015 41.3184 15.1473 41.2227 15.3007 41.1413C15.4575 41.0566 15.6584 40.9798 15.9026 40.9109C16.1505 40.8388 16.4057 40.8027 16.6691 40.8027C17.3432 40.8027 17.8807 40.9751 18.2817 41.3199C18.6831 41.6616 18.8836 42.0832 18.8836 42.5847C18.8836 42.8042 18.843 43.0032 18.7615 43.1819C18.6831 43.3605 18.5875 43.5032 18.4747 43.6097C18.3649 43.7163 18.2535 43.8072 18.1407 43.8825C18.0279 43.9545 17.9292 44.0063 17.8446 44.0376L17.7318 44.0752ZM21.4367 44.9921L23.2189 44.7006C23.2189 44.3589 23.1105 44.0815 22.8946 43.8684C22.6782 43.6552 22.4007 43.5486 22.0623 43.5486C21.8178 43.5486 21.5874 43.605 21.371 43.7179C21.1578 43.8276 21.0027 43.9404 20.9054 44.0564L20.7599 44.221L20.3273 43.7884C20.3459 43.7633 20.371 43.732 20.4022 43.6944C20.437 43.6536 20.5089 43.5847 20.6186 43.4875C20.7314 43.3872 20.849 43.2979 20.9714 43.2195C21.0935 43.1411 21.2534 43.0722 21.4508 43.0126C21.6517 42.9499 21.8553 42.9186 22.0623 42.9186C22.5888 42.9186 23.0246 43.0894 23.3691 43.4311C23.7172 43.7728 23.8912 44.1959 23.8912 44.7006V47.6392H23.2189V47.0139C23.2061 47.0327 23.1858 47.0593 23.1576 47.0938C23.1325 47.1252 23.073 47.1832 22.9792 47.2678C22.888 47.3493 22.7893 47.423 22.6827 47.4888C22.5761 47.5515 22.4351 47.6079 22.2597 47.6581C22.0874 47.7082 21.9086 47.7333 21.7235 47.7333C21.2627 47.7333 20.8741 47.5969 20.5577 47.3242C20.244 47.0515 20.0872 46.7396 20.0872 46.3886C20.0872 46.003 20.2035 45.6927 20.4353 45.4576C20.6674 45.2193 21.001 45.0642 21.4367 44.9921ZM21.7235 47.1079C22.1593 47.1079 22.5166 46.9653 22.7955 46.68C23.0779 46.3948 23.2189 46.0249 23.2189 45.5704V45.2789L21.6297 45.5704C21.0529 45.6801 20.763 45.9529 20.7599 46.3886C20.7599 46.5954 20.8445 46.7678 21.0137 46.9058C21.186 47.0405 21.4226 47.1079 21.7235 47.1079ZM26.1012 46.3415V47.6392H25.4288V43.0173H26.1012V45.4717L28.4098 43.0173H29.2324L27.4506 44.8933L29.4254 47.6392H28.6543L27.018 45.3776L26.1012 46.3415ZM31.3014 48.3116L31.5411 47.6392L29.6603 43.0173H30.3845L31.8795 46.7741L33.37 43.0173H34.0943L31.9737 48.3116C31.7825 48.8006 31.5772 49.147 31.3578 49.3507C31.1384 49.5576 30.8626 49.661 30.5303 49.661C30.4268 49.661 30.3264 49.6532 30.2294 49.6375C30.1352 49.6219 30.0647 49.6046 30.0176 49.5858L29.9519 49.567V48.9369C30.1118 48.9996 30.2717 49.0326 30.4316 49.0357C30.8388 49.0357 31.1291 48.7943 31.3014 48.3116ZM38.3305 47.6392V43.652H35.6834V47.6392H35.0111V43.0173H39.0077V47.6392H38.3305ZM41.2224 46.3415V47.6392H40.5498V43.0173H41.2224V45.4717L43.5307 43.0173H44.3537L42.5716 44.8933L44.5466 47.6392H43.7753L42.1393 45.3776L41.2224 46.3415ZM48.8768 43.0173H49.4552V47.6392H48.7781V44.174L45.9852 47.6392H45.4116V43.0173H46.0839V46.4826L48.8768 43.0173Z" fill="#0353D0"/>
<path d="M17.7318 44.0752C17.7693 44.0815 17.8178 44.0972 17.8776 44.1222C17.9402 44.1442 18.0516 44.199 18.2112 44.2868C18.3711 44.3714 18.5139 44.4717 18.639 44.5877C18.7646 44.7037 18.8774 44.8667 18.9778 45.0767C19.0782 45.2836 19.1281 45.5124 19.1281 45.7632C19.1281 46.2898 18.8977 46.7506 18.4372 47.1456C17.9794 47.5374 17.39 47.7333 16.6691 47.7333C16.3744 47.7333 16.0893 47.6972 15.8135 47.6251C15.5377 47.5499 15.3086 47.4621 15.127 47.3618C14.9482 47.2584 14.79 47.155 14.6521 47.0515C14.5142 46.9481 14.4169 46.8619 14.3605 46.7929L14.2618 46.6754L14.746 46.1958C14.7649 46.2209 14.7914 46.2538 14.8261 46.2945C14.8636 46.3321 14.942 46.4011 15.061 46.5014C15.1834 46.5986 15.3134 46.6863 15.4514 46.7647C15.5893 46.8399 15.7695 46.9089 15.992 46.9716C16.2145 47.0311 16.4404 47.0609 16.6691 47.0609C17.2018 47.0609 17.6235 46.9324 17.934 46.6754C18.2473 46.4183 18.4041 46.1143 18.4041 45.7632C18.4041 45.3839 18.2473 45.0642 17.934 44.804C17.6235 44.5438 17.2018 44.4138 16.6691 44.4138H15.9026V43.7414H16.6691C17.13 43.7414 17.4935 43.6333 17.76 43.417C18.0296 43.2007 18.1644 42.939 18.1644 42.6318C18.1644 42.3057 18.031 42.0315 17.7648 41.8089C17.4983 41.5864 17.1331 41.4751 16.6691 41.4751C16.3558 41.4751 16.0594 41.5393 15.7805 41.6679C15.5016 41.7964 15.2976 41.9249 15.1693 42.0534L14.9857 42.2462L14.5063 41.7666C14.5252 41.7415 14.5548 41.7071 14.5957 41.6632C14.6363 41.6161 14.7257 41.5378 14.8636 41.4281C15.0015 41.3184 15.1473 41.2227 15.3007 41.1413C15.4575 41.0566 15.6584 40.9798 15.9026 40.9109C16.1505 40.8388 16.4057 40.8027 16.6691 40.8027C17.3432 40.8027 17.8807 40.9751 18.2817 41.3199C18.6831 41.6616 18.8836 42.0832 18.8836 42.5847C18.8836 42.8042 18.843 43.0032 18.7615 43.1819C18.6831 43.3605 18.5875 43.5032 18.4747 43.6097C18.3649 43.7163 18.2535 43.8072 18.1407 43.8825C18.0279 43.9545 17.9292 44.0063 17.8446 44.0376L17.7318 44.0752ZM21.4367 44.9921L23.2189 44.7006C23.2189 44.3589 23.1105 44.0815 22.8946 43.8684C22.6782 43.6552 22.4007 43.5486 22.0623 43.5486C21.8178 43.5486 21.5874 43.605 21.371 43.7179C21.1578 43.8276 21.0027 43.9404 20.9054 44.0564L20.7599 44.221L20.3273 43.7884C20.3459 43.7633 20.371 43.732 20.4022 43.6944C20.437 43.6536 20.5089 43.5847 20.6186 43.4875C20.7314 43.3872 20.849 43.2979 20.9714 43.2195C21.0935 43.1411 21.2534 43.0722 21.4508 43.0126C21.6517 42.9499 21.8553 42.9186 22.0623 42.9186C22.5888 42.9186 23.0246 43.0894 23.3691 43.4311C23.7172 43.7728 23.8912 44.1959 23.8912 44.7006V47.6392H23.2189V47.0139C23.2061 47.0327 23.1858 47.0593 23.1576 47.0938C23.1325 47.1252 23.073 47.1832 22.9792 47.2678C22.888 47.3493 22.7893 47.423 22.6827 47.4888C22.5761 47.5515 22.4351 47.6079 22.2597 47.6581C22.0874 47.7082 21.9086 47.7333 21.7235 47.7333C21.2627 47.7333 20.8741 47.5969 20.5577 47.3242C20.244 47.0515 20.0872 46.7396 20.0872 46.3886C20.0872 46.003 20.2035 45.6927 20.4353 45.4576C20.6674 45.2193 21.001 45.0642 21.4367 44.9921ZM21.7235 47.1079C22.1593 47.1079 22.5166 46.9653 22.7955 46.68C23.0779 46.3948 23.2189 46.0249 23.2189 45.5704V45.2789L21.6297 45.5704C21.0529 45.6801 20.763 45.9529 20.7599 46.3886C20.7599 46.5954 20.8445 46.7678 21.0137 46.9058C21.186 47.0405 21.4226 47.1079 21.7235 47.1079ZM26.1012 46.3415V47.6392H25.4288V43.0173H26.1012V45.4717L28.4098 43.0173H29.2324L27.4506 44.8933L29.4254 47.6392H28.6543L27.018 45.3776L26.1012 46.3415ZM31.3014 48.3116L31.5411 47.6392L29.6603 43.0173H30.3845L31.8795 46.7741L33.37 43.0173H34.0943L31.9737 48.3116C31.7825 48.8006 31.5772 49.147 31.3578 49.3507C31.1384 49.5576 30.8626 49.661 30.5303 49.661C30.4268 49.661 30.3264 49.6532 30.2294 49.6375C30.1352 49.6219 30.0647 49.6046 30.0176 49.5858L29.9519 49.567V48.9369C30.1118 48.9996 30.2717 49.0326 30.4316 49.0357C30.8388 49.0357 31.1291 48.7943 31.3014 48.3116ZM38.3305 47.6392V43.652H35.6834V47.6392H35.0111V43.0173H39.0077V47.6392H38.3305ZM41.2224 46.3415V47.6392H40.5498V43.0173H41.2224V45.4717L43.5307 43.0173H44.3537L42.5716 44.8933L44.5466 47.6392H43.7753L42.1393 45.3776L41.2224 46.3415ZM48.8768 43.0173H49.4552V47.6392H48.7781V44.174L45.9852 47.6392H45.4116V43.0173H46.0839V46.4826L48.8768 43.0173Z" stroke="#0353D0" stroke-width="0.217143" mask="url(#path-3-outside-2_1309_17)"/>
<path d="M32 40.5324C21.511 40.5324 13 32.054 13 21.6056C13 11.1573 21.511 2.6792 32 2.6792C42.4889 2.6792 51 11.1573 51 21.6056C51 32.054 42.429 40.5324 32 40.5324ZM32 3.21658C21.8107 3.21658 13.5994 11.4558 13.5994 21.5459C13.5994 31.6361 21.8707 39.8755 32 39.8755C42.1293 39.8755 50.4006 31.6361 50.4006 21.5459C50.4006 11.4558 42.1293 3.21658 32 3.21658Z" fill="#0353D0"/>
<path d="M29.4227 27.217C32.1199 26.7393 35.4763 26.3214 39.3123 25.3661C41.2303 24.8885 43.6278 23.7541 44.6467 22.7988C45.6057 21.963 46.265 20.8883 46.0852 19.8136C46.0253 19.5151 45.6057 18.7986 45.1262 18.5598C45.6057 17.9627 45.5458 17.4254 45.4858 17.0075C45.4259 16.6492 45.306 16.291 45.0662 15.9328C44.7666 15.5149 44.4669 15.2163 43.8675 14.8581C43.9874 14.3208 43.8675 13.9028 43.6877 13.4849C43.2082 12.649 42.3691 11.9923 40.9306 11.2758C40.8707 10.9773 40.6909 10.5594 40.3912 10.2011C38.5331 8.40996 35.5363 7.51437 33.0189 7.45467C29.8423 7.39496 27.3249 8.11145 25.7666 8.76817C24.9874 9.12638 24.448 9.48465 23.8486 9.84286C28.5237 7.81288 34.2776 7.93234 37.3344 9.30555C38.2934 9.72346 38.9527 10.022 39.2524 10.5594C36.0757 9.72346 34.6972 9.54436 32 9.60406C28.224 9.66376 23.1893 11.2161 21.2114 12.2908L20.3723 13.3655C23.1294 11.7535 28.3439 10.6788 31.2209 10.5594C34.4574 10.4996 36.9149 10.7982 39.1924 11.634C39.0725 12.2311 38.7729 12.5296 38.2934 12.8281C29.1231 11.2758 23.6688 13.1864 18.8139 16.3507L18.4543 17.3657C23.9085 13.6043 30.6215 12.5893 37.0347 13.7237C34.6972 14.4999 31.9401 14.679 29.6625 15.2163C27.6846 15.694 26.6057 15.8134 24.0284 16.6492C21.3313 17.5448 19.7729 18.4404 18.8139 19.5748C18.3344 20.1121 17.9748 20.7092 17.9149 21.4256C17.8549 21.8436 17.9149 22.1421 18.0348 22.56C18.1546 22.8585 18.3944 23.1571 18.694 23.4556C18.3944 23.9929 18.0947 24.7094 18.5742 25.4856C18.8139 25.8438 19.2934 26.2617 19.7729 26.6199C19.7129 26.7393 19.6531 26.8588 19.6531 27.0379C19.5931 27.5155 19.5332 28.0529 19.8328 28.5305C20.3723 29.3664 21.0316 29.9037 22.0505 30.441C22.2303 31.1575 22.4701 31.6948 23.0095 32.1725C24.1483 33.2472 26.7256 35.2174 31.2808 35.516C34.6972 35.7549 37.1546 34.7398 38.0536 34.2621L39.1924 33.6651C37.2745 34.4413 34.0978 34.8592 31.4606 34.6801C27.6246 34.3816 24.2083 31.874 23.8486 31.1575C23.9685 31.2172 24.1483 31.3366 24.3281 31.3963C28.7635 33.5457 34.5773 34.6801 41.9496 31.6948L42.5489 31.0978C35.836 33.1875 29.9622 33.1278 23.6688 29.844C23.7288 29.5455 23.8486 29.247 24.1483 29.0678C25.7666 29.7843 27.265 30.3813 29.183 30.7396C31.3407 31.1575 33.918 31.2172 35.9558 31.1575C38.0536 31.0978 42.1893 30.0231 44.1072 29.0081C44.2871 28.829 44.347 28.5902 44.5268 28.4111C40.6909 29.7843 36.1956 30.441 33.4385 30.2619C30.7414 30.0828 28.4038 29.7246 25.2272 28.3514C25.8265 28.1126 26.4259 27.8737 27.0852 27.6946C29.1231 28.3514 31.2209 28.7096 33.7382 28.829C36.1956 28.9484 41.9496 27.9932 45.6057 25.8438C45.7255 25.5453 45.8454 25.187 45.8454 25.187C45.8454 25.187 40.8107 27.8737 35.1167 27.8737C32.2398 27.9334 30.6215 27.5155 29.4227 27.217ZM43.388 16.1119C43.9874 16.6492 44.1672 17.0075 43.8675 17.5448C43.448 17.2463 43.0284 17.0672 42.6088 16.8881C42.9085 16.5895 43.1483 16.3507 43.388 16.1119ZM42.9685 18.5001C42.429 18.918 41.7098 19.2763 40.9306 19.5748C38.5331 20.4106 34.2776 21.3062 32 21.6644C29.7224 22.0227 27.8044 22.3212 25.2871 22.9779C23.8486 23.3362 22.8297 23.8138 22.1105 24.2915C21.571 23.9929 21.2713 23.8735 20.7918 23.5153C22.53 22.0227 26.0663 21.1868 27.3849 20.8883C31.5205 19.9927 35.4164 19.4554 36.9748 19.0374C38.8928 18.5598 40.2713 18.0822 41.1703 17.6642C41.2902 17.6045 42.7887 18.321 42.9685 18.5001ZM40.7508 12.4102C41.3502 12.8281 42.1293 13.4252 42.1893 14.0222C41.5299 13.7834 40.8107 13.4849 40.0915 13.3058C40.3313 13.067 40.6909 12.7087 40.7508 12.4102ZM39.1325 14.2014C40.1514 14.4402 41.1104 14.7984 41.8297 15.1566C41.7098 15.3357 40.8107 16.1716 40.6309 16.0522C39.552 15.7537 38.653 15.3954 37.3944 15.1566C38.1136 14.9178 38.653 14.5596 39.1325 14.2014ZM19.5931 22.3809C17.9149 20.1121 23.7288 18.5001 24.8076 18.1419C27.6246 17.306 30.8612 16.6492 33.8581 16.3507C35.8959 16.1119 36.9748 16.3507 38.8928 16.8284C33.918 18.1419 29.0032 18.5598 24.3281 19.933C20.5521 21.0077 19.5931 22.3809 19.5931 22.3809ZM20.3723 25.6647C20.0127 25.4258 19.6531 25.0079 19.8328 24.59C20.1924 24.8288 20.4922 25.0079 20.8518 25.2467C20.7319 25.3661 20.5521 25.4855 20.3723 25.6647ZM21.9306 29.0081C21.3313 28.5305 21.0915 28.1723 21.0915 27.7543C21.4511 27.9931 21.8707 28.1723 22.2303 28.4111C22.1105 28.6499 21.9906 28.7693 21.9306 29.0081ZM23.3092 27.5155C22.7697 27.217 22.2303 26.9185 21.6909 26.6199C21.9306 26.3811 22.1704 26.202 22.53 26.0229C23.2492 26.3214 23.9085 26.6199 24.5679 26.9185C24.0884 27.0976 23.6688 27.3364 23.3092 27.5155ZM26.4259 26.3214C25.5868 26.0229 24.8076 25.6647 24.0884 25.3064C24.8076 25.0079 25.6467 24.7691 26.4259 24.5303C30.3817 23.575 33.8581 23.3959 38.653 22.0824C40.9906 21.4853 42.6088 20.8286 43.6877 19.9927C43.8675 19.8733 43.9874 19.7539 44.1672 19.6345C45.5458 21.7839 40.3313 23.4556 36.735 24.172C34.7571 24.59 32 25.0676 31.1609 25.187C28.8233 25.605 27.9842 25.8438 26.4259 26.3214Z" fill="#0353D0"/>
</g>
<defs>
<clipPath id="clip0_1309_17">
<rect width="64" height="64" fill="white"/>
</clipPath>
</defs>
</svg>
