<svg width="20" height="20" viewBox="0 0 20 20" fill="none" xmlns="http://www.w3.org/2000/svg">
  <circle cx="10" cy="10" r="9" fill="#909EBB"/>
  <path d="M10.1172 8.64062C9.73177 8.64062 9.40885 8.77604 9.14844 9.04688C8.88802 9.31771 8.75781 9.66146 8.75781 10.0781C8.75781 10.4948 8.88802 10.8411 9.14844 11.1172C9.41406 11.388 9.73698 11.5234 10.1172 11.5234C10.4818 11.5234 10.7865 11.3906 11.0312 11.125C11.276 10.8542 11.3984 10.5052 11.3984 10.0781C11.3984 9.65104 11.276 9.30469 11.0312 9.03906C10.7865 8.77344 10.4818 8.64062 10.1172 8.64062ZM9.88281 7.11719C10.1901 7.11719 10.4688 7.17188 10.7188 7.28125C10.9688 7.38542 11.1484 7.49219 11.2578 7.60156L11.3984 7.75781V7.20312H12.9219V10.7188C12.9219 10.9635 13.0052 11.1719 13.1719 11.3438C13.3438 11.5156 13.5521 11.6016 13.7969 11.6016C14.5417 11.6016 14.9167 10.9609 14.9219 9.67969C14.9219 8.46615 14.4714 7.42969 13.5703 6.57031C12.6693 5.71094 11.5469 5.28125 10.2031 5.28125C8.92188 5.28125 7.82812 5.73958 6.92188 6.65625C6.01562 7.57292 5.5625 8.6875 5.5625 10C5.5625 11.3125 6.01562 12.4271 6.92188 13.3438C7.82812 14.2604 8.92188 14.7188 10.2031 14.7188C10.7448 14.7188 11.2552 14.638 11.7344 14.4766C12.2135 14.3203 12.5547 14.1615 12.7578 14L13.0781 13.7578L13.9609 14.8828C13.9297 14.9141 13.875 14.9609 13.7969 15.0234C13.724 15.0859 13.5677 15.1953 13.3281 15.3516C13.0885 15.5078 12.8307 15.6458 12.5547 15.7656C12.2839 15.8906 11.9349 16 11.5078 16.0938C11.0859 16.1927 10.651 16.2422 10.2031 16.2422C9.10417 16.2422 8.07292 15.9557 7.10938 15.3828C6.15104 14.8151 5.38542 14.0521 4.8125 13.0938C4.24479 12.1302 3.96094 11.099 3.96094 10C3.96094 8.90104 4.24479 7.8724 4.8125 6.91406C5.38542 5.95052 6.15104 5.1849 7.10938 4.61719C8.07292 4.04427 9.10417 3.75781 10.2031 3.75781C11.9844 3.75781 13.4818 4.34115 14.6953 5.50781C15.9141 6.66927 16.5234 8.0599 16.5234 9.67969C16.5234 10.7266 16.2656 11.5495 15.75 12.1484C15.2396 12.7422 14.5885 13.0391 13.7969 13.0391C13.4219 13.0391 13.0807 12.9609 12.7734 12.8047C12.4661 12.6432 12.2526 12.4818 12.1328 12.3203L11.9609 12.0781C11.9193 12.151 11.8516 12.2422 11.7578 12.3516C11.6693 12.4609 11.4531 12.6042 11.1094 12.7812C10.7708 12.9531 10.388 13.0391 9.96094 13.0391C9.17969 13.0391 8.51562 12.7604 7.96875 12.2031C7.42708 11.6406 7.15625 10.9323 7.15625 10.0781C7.15625 9.23438 7.42708 8.53125 7.96875 7.96875C8.51042 7.40104 9.14844 7.11719 9.88281 7.11719Z" fill="white"/>
</svg>
